# xmcd
#
# Track frame offsets:
#	150
#	27928
#	38001
#	89663
#	107492
#	129723
#	148544
#	192495
#	218831
#	241501
#
# Disc length: 4126 seconds
#
# Revision: 1
# Processed by: cddbd v1.5.1PL0 Copyright (c) Steve Scherf et al.
# Submitted via: audiograbber 1.83.01
#
DISCID=86101c0a
DTITLE=Stevie Ray Vaughan And Double Trouble - Blues at Sunrise [CDOne)
DYEAR=2000
DGENRE=Blues
TTITLE0=Ain't Gone 'N' Give Up On Love
TTITLE1=02 Leave My Girl Alone
TTITLE2=Tin Pan Alley [A.K.A. Roughe..
TTITLE3=Chitlins Con Carne
TTITLE4=The Things [That] I Used To Do
TTITLE5=The Sky Is Crying
TTITLE6=Texas Flood [Video Version]
TTITLE7=May I Have A Talk With You
TTITLE8=Dirty Pool
TTITLE9=Blues At Sunrise (Live Featu..
EXTD=
EXTT0=
EXTT1=
EXTT2=
EXTT3=
EXTT4=
EXTT5=
EXTT6=
EXTT7=
EXTT8=
EXTT9=
PLAYORDER=
